# xmcd
#
# Track frame offsets: 
#        150
#        10516
#        23587
#        37737
#        49161
#        61723
#        74943
#        88444
#        101599
#        115418
#
# Disc length: 1700 seconds
#
# Revision: 0
# Processed by: cddbd v1.5.2PL0 Copyright (c) Steve Scherf et al.
# Submitted via: ExactAudioCopy v0.99pb5
#
DISCID=7e06a20a
DTITLE=Muddy Waters - Sings Big Bill Broonzy
DYEAR=1900
DGENRE=Blues
TTITLE0=Tell Me Baby
TTITLE1=Southbound Train
TTITLE2=When I Get To Thinking
TTITLE3=Just A Dream (On My Mind)
TTITLE4=Double Trouble
TTITLE5=I Feel So Good
TTITLE6=I Done Got Wise
TTITLE7=Mopper's Blues
TTITLE8=Lonesome Road Blues
TTITLE9=Hey, Hey
EXTD=
EXTT0=
EXTT1=
EXTT2=
EXTT3=
EXTT4=
EXTT5=
EXTT6=
EXTT7=
EXTT8=
EXTT9=
PLAYORDER=
